<?xml version="1.0" encoding="utf-8"?>
<!-- Generator: Adobe Illustrator 23.0.2, SVG Export Plug-In . SVG Version: 6.00 Build 0)  -->
<svg version="1.1" id="Layer_1" xmlns="http://www.w3.org/2000/svg" xmlns:xlink="http://www.w3.org/1999/xlink" x="0px" y="0px"
	 viewBox="0 0 165.2 96.6" style="enable-background:new 0 0 165.2 96.6;" xml:space="preserve">
<style type="text/css">
	.st0{fill:#FFEE35;}
	.st1{fill:#FFFFFF;}
	.st2{fill:#1C252C;}
</style>
<g>
	<g>
		<polygon class="st0" points="132.2,70.2 165.2,70.2 165.2,96.6 132.2,96.6 124,88.9 124,78 		"/>
		<g>
			<path class="st1" d="M29.6,20.8l0.6-0.2c0.4-0.2,0.9-0.5,1.5-1s1.1-1,1.7-1.6s1.1-1.5,1.5-2.5s0.6-2.1,0.6-3.3
				c0-3-1.4-5.6-4.1-7.8C28.7,2.2,25,1.1,20.3,1.1H0v41.7h21.6c5.5,0,17-1,17-11.9C38.5,22.6,29.8,20.9,29.6,20.8 M13.5,10.9h5
				c1,0,1.8,0.3,2.4,0.9c0.6,0.6,0.9,1.3,0.9,2.2s-0.3,1.6-0.9,2.2c-0.6,0.6-1.4,0.9-2.4,0.9h-5V10.9z M22.7,32.1
				c-0.8,0.7-1.8,1.1-2.9,1.1h-6.4v-7.5h6.4c1.2,0,2.2,0.4,2.9,1.1c0.8,0.7,1.2,1.6,1.2,2.6C23.9,30.5,23.5,31.4,22.7,32.1"/>
			<path class="st1" d="M40.3,67l0.6-0.2c0.4-0.2,0.9-0.5,1.5-1s1.1-1,1.7-1.6c0.6-0.6,1.1-1.5,1.5-2.5s0.6-2.1,0.6-3.3
				c0-3-1.4-5.6-4.1-7.8c-2.7-2.2-6.4-3.3-11.1-3.3H10.7V89h21.5c5.5,0,17-1,17-11.9C49.2,68.8,40.5,67.1,40.3,67 M24.2,57.1h4.9
				c1,0,1.8,0.3,2.4,0.9s0.9,1.3,0.9,2.2c0,0.9-0.3,1.6-0.9,2.2s-1.4,0.9-2.4,0.9h-4.9C24.2,63.3,24.2,57.1,24.2,57.1z M33.5,78.3
				c-0.8,0.7-1.8,1.1-2.9,1.1h-6.3v-7.5h6.3c1.2,0,2.2,0.4,2.9,1.1c0.8,0.7,1.2,1.6,1.2,2.6C34.6,76.7,34.2,77.6,33.5,78.3"/>
			<polygon class="st1" points="73.1,32.7 52.9,32.7 52.9,26.2 69.4,26.2 69.4,16.6 52.9,16.6 52.9,11.3 73.1,11.3 73.1,1.1 
				39.4,1.1 39.4,42.9 73.1,42.9 			"/>
			<polygon class="st1" points="107.6,1.1 107.6,11.3 118.6,11.3 118.6,42.9 132,42.9 132,11.3 143,11.3 143,1.1 			"/>
			<path class="st1" d="M92.3,32.1c-0.7,0.6-1.8,1-3.1,1c-1.3,0-2.7-0.4-4.1-1.1s-2.4-1.3-2.8-1.7c-0.3-0.2-0.5-0.5-0.7-0.7l-8,7.6
				l0.5,0.5c0.5,0.5,1.2,1.1,2.2,1.8c1,0.7,2.2,1.4,3.5,2.1s3,1.3,5,1.8s4,0.7,6.2,0.7c5.3,0,9.5-1.4,12.6-4.1s4.7-6,4.7-9.9
				c0-2.2-0.5-4.2-1.4-5.9c-0.9-1.7-2-3-3.4-3.8c-1.3-0.9-2.8-1.6-4.4-2.3c-1.4-0.6-2.8-1.1-4-1.4c-0.1,0-0.2-0.1-0.4-0.1
				c-1.3-0.3-2.5-0.7-3.4-1.2S90,14.3,90,13.7c0-0.8,0.3-1.4,0.9-1.9s1.5-0.8,2.6-0.8c2.7,0,4.4,1.2,5.3,2.1l8-7.6l-0.1-0.2
				c-0.3-0.4-1-1-1.8-1.5c-0.9-0.6-1.8-1.1-3-1.7c-1.1-0.6-2.6-1.1-4.4-1.5C95.7,0.2,93.8,0,91.8,0c-5,0-9,1.3-12.1,4
				c-3.1,2.6-4.6,5.8-4.6,9.3c0,1.9,0.3,3.6,1,5.1s1.5,2.7,2.6,3.6c1,0.9,2.2,1.7,3.5,2.4c1.1,0.6,2.2,1,3.3,1.4
				c0.2,0.1,0.4,0.1,0.6,0.2c1.3,0.4,2.5,0.8,3.6,1.2c1.1,0.4,1.9,0.7,2.6,1.1s1,0.9,1,1.5C93.4,30.6,93,31.4,92.3,32.1"/>
			<path class="st1" d="M73.1,72.1c0,2.8-2.2,5-5,5s-5.1-2.2-5.1-5V47.3H49.6v24.2c0,10,8.1,18,18,18h0.8c10,0,18-8.1,18-18V47.3H73
				L73.1,72.1L73.1,72.1z"/>
			<polygon class="st1" points="109.6,61.5 100.7,47.3 87.2,47.3 102.8,74.2 102.8,89.1 116.3,89.1 116.3,74.2 131.9,47.3 
				118.4,47.3 			"/>
			<path class="st2" d="M130.5,83.4c0,0.9-0.7,1.6-1.6,1.6c-0.9,0-1.6-0.7-1.6-1.6c0-0.9,0.7-1.6,1.6-1.6
				C129.8,81.7,130.5,82.5,130.5,83.4"/>
			<path class="st1" d="M132.2,59.3h-1V59h2.3v0.3h-1v2.9h-0.4L132.2,59.3L132.2,59.3z M134.2,59h0.5l1,2.5l1-2.5h0.5v3.2h-0.4v-2.7
				l-1.1,2.7h-0.1l-1.1-2.7v2.7h-0.4V59H134.2z"/>
		</g>
	</g>
</g>
</svg>
