<?xml version="1.0" encoding="utf-8"?>
<!-- Generator: Adobe Illustrator 22.1.0, SVG Export Plug-In . SVG Version: 6.00 Build 0)  -->
<svg version="1.1" id="Layer_1" xmlns="http://www.w3.org/2000/svg" xmlns:xlink="http://www.w3.org/1999/xlink" x="0px" y="0px"
	 viewBox="0 0 62 62" style="enable-background:new 0 0 62 62;" xml:space="preserve">
<style type="text/css">
	.st0{fill:#FFFFFF;}
	.st1{fill:#006341;}
	.st2{fill:none;}
</style>
<circle class="st0" cx="31" cy="31" r="30"/>
<path class="st1" d="M34,14c-0.3,0-1.5-0.3-3-0.3s-2.8,0.2-3,0.3c-0.2,0-0.2-0.1-0.1-0.2c0.1-0.1,3.1-2.4,3.1-2.4s3,2.3,3.1,2.4
	C34.2,13.8,34.2,14,34,14z M28.8,28.8c0,0-0.2,0.1-0.2,0.2c0.6,0.5,1.1,1.6,2.4,1.6s1.7-1.1,2.4-1.6c0-0.1-0.2-0.2-0.2-0.2
	S32.4,29,31,29S28.8,28.8,28.8,28.8z M31,27c-0.4,0-0.4-0.1-0.7-0.1c-0.2,0-0.7,0.2-0.8,0.4c0,0.1,0,0.2,0.1,0.2
	c0.5,0.1,0.8,0.4,1.4,0.4s0.9-0.3,1.4-0.4c0.1-0.1,0.1-0.1,0.1-0.2c-0.1-0.2-0.6-0.4-0.8-0.4C31.4,26.8,31.4,27,31,27z M61,32.6
	c0,0.7-0.1,1.4-0.2,2.1c-3.4,0.6-4.6-2.5-8.1-2.3c0.2,0.7,0.4,1.5,0.5,2.3c2.9,0,4,2.7,7.2,2.3c-0.2,0.8-0.4,1.6-0.6,2.4
	c-2.5,0.2-3.4-2.3-6.3-2.2c0,0.7,0,1.3,0,2c2.5,0,3.3,2.3,5.7,2.2c-0.3,0.8-0.6,1.6-1,2.4c-1.7-0.1-2.3-2.3-4.9-2.1
	c-0.1,0.6-0.2,1.1-0.3,1.7c2.3-0.2,2.7,1.9,4.4,2.1c-0.4,0.8-0.9,1.5-1.3,2.2c-1-0.5-1.8-2.1-3.6-2.2c0.2-0.6,0.3-1.2,0.5-1.7
	c-1.6,0-3.4-0.6-5-2c0.5-2.8-3.9-5.7-3.9-7.8c0-2.3,1.1-3.5,1.1-6.6c0-2.3-1.1-4.7-2.8-6.4c-0.3-0.3-0.7-0.6-1-0.8
	c1.5,1.9,2.7,4.1,2.7,6.7c0,2.9-1.3,4.4-1.3,7c0,2.7,3.9,4.9,3.9,7.7c0,1.1-0.3,2.1-1.5,4.2c1.7,1.7,4,2.7,5.5,2.7
	c0.5,0,0.7-0.1,0.9-0.5c0.1-0.3,0.3-0.6,0.4-1c1.6,0.1,2.3,1.5,3.2,2.1c-0.5,0.6-1,1.3-1.5,1.9c-0.6-0.6-1.4-1.7-2.5-2
	c-0.2,0.4-0.4,0.8-0.7,1.2c1,0.3,1.7,1.3,2.2,1.9c-0.6,0.6-1.2,1.1-1.8,1.7c-0.4-0.6-1-1.4-1.6-1.8c-0.2,0.3-0.5,0.7-0.8,1
	c0.6,0.4,1.1,1.1,1.4,1.6c-0.7,0.6-1.4,1.1-2.2,1.6c-0.4-3-4.5-5.1-3.4-8.7c-0.4,0.6-0.8,1.4-0.8,2.3c0,2.6,2.7,4.6,2.9,7.1
	c-0.6,0.3-1.1,0.7-1.7,1c-0.1-2.8-3-5.9-3-8.1c0-2.6,3.4-5.1,3.4-8.2c0-3-3.9-5.1-3.9-7.8c0-2.7,1.6-4.2,1.6-7.6c0-2.5-1.2-5-3-6.6
	c-0.3-0.3-0.7-0.5-1-0.7c1.7,2.1,2.7,3.9,2.7,6.8c0,3.2-1.9,5-1.9,8.1c0,3.1,3.8,4.9,3.8,7.8s-3.5,5.4-3.5,8.4
	c0,2.7,3.1,5.5,3.2,8.7c-0.7,0.3-1.4,0.6-2.1,0.8c0.4-3.3-3.1-6.6-3.1-9.3c0-2.9,3.7-5.4,3.7-8.6c0-3.1-3.7-4.6-3.7-7.8
	c0-3.2,2.3-5,2.3-8.6c0-2.8-1.4-5.3-3.4-6.8l-0.1-0.1c-0.2-0.1-0.3,0-0.2,0.2c1.4,1.8,2.2,3.6,2.2,6.2c0,3.3-2.6,5.9-2.6,9.1
	c0,3.7,3.5,4.8,3.5,7.9c0,3.1-3.8,5.5-3.8,8.8c0,3,3.6,6.4,3,9.8c-0.7,0.2-1.5,0.3-2.2,0.5c0.7-4.3-2.8-7.4-2.8-10.3
	c0-3.1,3.9-5.8,3.9-8.8c0-2.8-2.8-3.8-3.2-6.6c-0.1-0.4-0.4-0.7-0.8-0.6c-0.6,0.1-1.3,0.5-2.5,0.5s-1.9-0.4-2.5-0.5
	c-0.4-0.1-0.8,0.2-0.8,0.6c-0.4,2.9-3.2,3.8-3.2,6.6c0,3,3.9,5.7,3.9,8.8c0,2.8-3.5,5.9-2.8,10.3c-0.7-0.1-1.5-0.3-2.2-0.5
	c-0.6-3.5,3-6.8,3-9.8c0-3.2-3.8-5.7-3.8-8.8c0-3.1,3.5-4.1,3.5-7.9c0-3.2-2.6-5.8-2.6-9.1c0-2.7,0.8-4.4,2.2-6.2
	c0.1-0.2,0-0.3-0.2-0.2c0,0-0.1,0.1-0.1,0.1c-2,1.5-3.4,4-3.4,6.8c0,3.6,2.3,5.4,2.3,8.6c0,3.2-3.7,4.7-3.7,7.8
	c0,3.1,3.7,5.7,3.7,8.6c0,2.7-3.5,6-3.1,9.3c-0.7-0.2-1.4-0.5-2.1-0.8c0-3.2,3.2-6,3.2-8.7c0-3-3.5-5.5-3.5-8.4s3.8-4.7,3.8-7.8
	c0-3.1-1.9-4.9-1.9-8.1c0-2.8,1-4.7,2.7-6.8c-0.4,0.2-0.7,0.4-1,0.7c-1.8,1.6-3,4.1-3,6.6c0,3.4,1.6,4.9,1.6,7.6
	c0,2.7-3.9,4.8-3.9,7.8c0,3,3.4,5.6,3.4,8.2c0,2.3-2.9,5.4-3,8.1c-0.6-0.3-1.2-0.6-1.7-1c0.2-2.5,2.9-4.6,2.9-7.1
	c0-0.9-0.4-1.7-0.8-2.3c1.1,3.5-3,5.6-3.4,8.7c-0.8-0.5-1.5-1-2.2-1.6c0.3-0.6,0.8-1.3,1.4-1.6c-0.3-0.3-0.5-0.6-0.8-1
	c-0.7,0.4-1.3,1.2-1.6,1.8c-0.6-0.5-1.2-1.1-1.8-1.7c0.5-0.7,1.2-1.7,2.2-1.9c-0.2-0.4-0.4-0.8-0.7-1.2c-1.2,0.3-1.9,1.4-2.5,2
	c-0.5-0.6-1-1.2-1.5-1.9c0.9-0.6,1.6-2,3.2-2.1c0.1,0.3,0.3,0.7,0.4,1c0.2,0.4,0.4,0.5,0.9,0.5c1.5,0,3.7-0.9,5.5-2.7
	c-1.1-2.1-1.5-3.1-1.5-4.2c0-2.7,3.9-5,3.9-7.7s-1.3-4.2-1.3-7c0-2.6,1.2-4.8,2.7-6.7c-0.4,0.2-0.7,0.5-1,0.8
	c-1.7,1.7-2.8,4.1-2.8,6.4c0,3.1,1.1,4.3,1.1,6.6c0,2.1-4.4,5-3.9,7.8c-1.5,1.4-3.4,2-5,2c0.1,0.6,0.3,1.2,0.5,1.7
	c-1.8,0.1-2.6,1.6-3.6,2.2c-0.5-0.7-0.9-1.4-1.3-2.2c1.6-0.2,2.1-2.2,4.4-2.1c-0.1-0.6-0.2-1.1-0.3-1.7c-2.6-0.2-3.2,2-4.9,2.1
	c-0.4-0.8-0.7-1.6-1-2.4c2.4,0.1,3.2-2.2,5.7-2.2c0-0.7,0-1.3,0-2c-2.9-0.1-3.8,2.4-6.3,2.2C2,38.6,1.8,37.8,1.6,37
	c3.2,0.4,4.3-2.3,7.2-2.3c0.1-0.8,0.3-1.5,0.5-2.3c-3.5-0.2-4.7,2.9-8.1,2.3c-0.1-0.7-0.2-1.4-0.2-2.1c3.9,0.4,5.4-2.8,9-2.4
	c0.3-0.9,0.7-1.7,1.2-2.5c-4.5-0.8-6,3-10.2,2.4C1.5,14,14.7,1,31,1s29.5,13,30,29.1c-4.2,0.6-5.7-3.2-10.2-2.4
	c0.4,0.8,0.8,1.6,1.2,2.5C55.5,29.8,57,33.1,61,32.6z M18.1,20.1c-2.2-0.9-4.9-0.7-7.2,0.8c-0.4-2.1-1.5-4-3.1-5.2
	c-0.2-0.2-0.5,0-0.4,0.3c0.3,4.5-2.3,8.4-5.5,11.8c3.3,1,6.2-3.3,10.5-1.8C13.9,23.7,15.8,21.7,18.1,20.1z M31,17.3
	c-2.8,0-5.1,1.6-5.7,3.6c0,0.2,0,0.3,0.2,0.2c0.5-0.2,1.1-0.3,1.7-0.3c1.1,0,2.1,0.4,2.7,1.1c0.3,0.9,0.3,2.1,0,2.8
	c-0.5-0.1-0.6-0.5-1.1-0.5s-0.8,0.3-1.6,0.3c-0.8,0-0.9-0.4-1.4-0.4c-0.6,0-0.7,0.6-0.7,1.3c0,3.1,2.9,7.4,5.9,7.4
	c3,0,5.9-4.3,5.9-7.4c0-0.7-0.1-1.3-0.8-1.4c-0.3,0.2-0.6,0.4-1.3,0.4c-0.8,0-1-0.3-1.4-0.3c-0.6,0-0.5,1.2-1.2,1.2
	c-0.4-1-0.5-2.4-0.1-3.6c0.6-0.7,1.6-1.1,2.7-1.1c0.6,0,1.2,0.1,1.7,0.3c0.2,0.1,0.2,0,0.2-0.2C36.1,18.9,33.8,17.3,31,17.3z
	 M35.4,21.8c-0.7,0-1.5,0.2-1.9,0.8c-0.1,0.2,0,0.4,0,0.5c1.2-0.4,2.3-0.4,2.8,0.1c0.3-0.2,0.4-0.5,0.4-0.7
	C36.7,22.1,36.3,21.8,35.4,21.8z M25.7,23.2c0.6-0.6,1.8-0.6,3.1-0.1c0.1-0.6-1.1-1.3-2.2-1.3c-0.8,0-1.2,0.3-1.2,0.7
	C25.3,22.7,25.4,23,25.7,23.2z M44.9,12.7c-2.2,0.2-4.1,0.9-5.7,2.2c0.6-1.8,1.5-3.5,2.5-5.1c-2.8,0.3-5.1,1.3-6.8,3.1l-1.3-3.5
	l3-2.6l-4-0.3L31,2.8l-1.6,3.7l-4,0.3l3,2.6l-1.3,3.5c-1.7-1.8-4-2.8-6.8-3.1c1.1,1.6,1.9,3.3,2.5,5.1c-1.5-1.3-3.5-2-5.7-2.2
	c1.3,1.7,2.5,3.5,3.4,5.4c0.1,0.2,0.3,0.3,0.5,0.2c3-1.5,6.4-2.3,10-2.3s7,0.8,10,2.3c0.2,0.1,0.4,0,0.5-0.2
	C42.4,16.2,43.6,14.4,44.9,12.7z M49.7,26c4.3-1.5,7.1,2.8,10.5,1.8c-3.2-3.4-5.9-7.3-5.5-11.8c0-0.3-0.2-0.4-0.4-0.3
	c-1.6,1.1-2.8,3-3.1,5.2c-2.3-1.5-5-1.7-7.2-0.8C46.2,21.7,48.1,23.7,49.7,26z"/>
<path class="st2" d="M47.2,60.7h3.6V61h-3.6V60.7z"/>
<path class="st1" d="M53.6,57h-1.5v4.1h-0.5V57H50v-0.5h3.6V57z M54.2,56.5H55l1.6,3.6h0l1.6-3.6H59v4.6h-0.6v-3.9h0l-1.7,3.9h-0.3
	l-1.7-3.9h0v3.9h-0.5V56.5z"/>
</svg>
